<svg width="200" height="200" viewBox="0 0 200 200" xmlns="http://www.w3.org/2000/svg">
  <!-- Background with rounded corners -->
  <rect x="0" y="0" width="200" height="200" rx="30" fill="#00f58c" />

  <!-- Large House with rounded corners, occupying 80-90% of the canvas -->
  <svg x="20" y="20" width="160" height="160" xmlns="http://www.w3.org/2000/svg" viewBox="0 0 24 24" fill="white">
    <path d="M19.006 3.705a.75.75 0 1 0-.512-1.41L6 6.838V3a.75.75 0 0 0-.75-.75h-1.5A.75.75 0 0 0 3 3v4.93l-1.006.365a.75.75 0 0 0 .512 1.41l16.5-6Z" />
    <path fill-rule="evenodd" d="M3.019 11.114 18 5.667v3.421l4.006 1.457a.75.75 0 1 1-.512 1.41l-.494-.18v8.475h.75a.75.75 0 0 1 0 1.5H2.25a.75.75 0 0 1 0-1.5H3v-9.129l.019-.007ZM18 20.25v-9.566l1.5.546v9.02H18Zm-9-6a.75.75 0 0 0-.75.75v4.5c0 .414.336.75.75.75h3a.75.75 0 0 0 .75-.75V15a.75.75 0 0 0-.75-.75H9Z" clip-rule="evenodd" />
  </svg>

  <!-- Lightning bolt positioned over the house, with height around 60% of the SVG -->
  <svg x="70" y="30" width="70" height="140" xmlns="http://www.w3.org/2000/svg" viewBox="0 0 24 24" fill="#b9b9b9" style="opacity:65%;">
    <path fill-rule="evenodd" d="M14.615 1.595a.75.75 0 0 1 .359.852L12.982 9.75h7.268a.75.75 0 0 1 .548 1.262l-10.5 11.25a.75.75 0 0 1-1.272-.71l1.992-7.302H3.75a.75.75 0 0 1-.548-1.262l10.5-11.25a.75.75 0 0 1 .913-.143Z" clip-rule="evenodd" />
  </svg>
</svg>
